<?xml version="1.0" encoding="UTF-8"?>
<svg width="18px" height="20px" viewBox="0 0 18 20" version="1.1" xmlns="http://www.w3.org/2000/svg" xmlns:xlink="http://www.w3.org/1999/xlink">
    <title>0AF8B33A-3ED9-4B72-B235-046C6A6AB949</title>
    <defs>
        <path d="M16,9 L2,9 L2,5 C2,4.449 2.449,4 3,4 L4,4 L4,5 C4,5.55 4.45,6 5,6 C5.55,6 6,5.55 6,5 L6,4 L12,4 L12,5 C12,5.55 12.45,6 13,6 C13.55,6 14,5.55 14,5 L14,4 L15,4 C15.551,4 16,4.449 16,5 L16,9 Z M13,15 L9,15 C8.45,15 8,14.55 8,14 C8,13.45 8.45,13 9,13 L13,13 C13.55,13 14,13.45 14,14 C14,14.55 13.55,15 13,15 L13,15 Z M5,15 C4.45,15 4,14.55 4,14 C4,13.45 4.45,13 5,13 C5.55,13 6,13.45 6,14 C6,14.55 5.55,15 5,15 L5,15 Z M15,2 L14,2 L14,1 C14,0.45 13.55,0 13,0 C12.45,0 12,0.45 12,1 L12,2 L6,2 L6,1 C6,0.45 5.55,0 5,0 C4.45,0 4,0.45 4,1 L4,2 L3,2 C1.346,2 0,3.346 0,5 L0,17 C0,18.654 1.346,20 3,20 L15,20 C16.654,20 18,18.654 18,17 L18,5 C18,3.346 16.654,2 15,2 L15,2 Z" id="path-1"></path>
    </defs>
    <g id="UI-Main-Pages-(Broke-links-to-icons)" stroke="none" stroke-width="1" fill="none" fill-rule="evenodd">
        <g id="02.0.0.-Profile--Page---General---Default---Collapsed" transform="translate(-983.000000, -338.000000)">
            <g id="Contact-Information-Modul" transform="translate(120.000000, 184.000000)">
                <g id="Last-start-date" transform="translate(860.000000, 152.000000)">
                    <g id="27)-Icon/bookmark-fill-Copy-7" transform="translate(3.000000, 2.000000)">
                        <mask id="mask-2" fill="white">
                            <use xlink:href="#path-1"></use>
                        </mask>
                        <use id="🎨-Icon-Сolor" fill="#1A34B8" xlink:href="#path-1"></use>
                    </g>
                </g>
            </g>
        </g>
    </g>
</svg>