<?xml version="1.0" encoding="UTF-8"?>
<svg width="22px" height="28px" viewBox="0 0 22 28" version="1.1" xmlns="http://www.w3.org/2000/svg" xmlns:xlink="http://www.w3.org/1999/xlink">
    <title>93875119-B4A5-4FA2-9046-19E0FFEE7453</title>
    <g id="UI-Main-Pages-(Broke-links-to-icons)" stroke="none" stroke-width="1" fill="none" fill-rule="evenodd">
        <g id="02.0.2.-Profile--Page---General---2-tables-displayed" transform="translate(-149.000000, -1210.000000)" fill="#3366FF">
            <g id="Certifications" transform="translate(120.000000, 1192.000000)">
                <g id="27)-Icon/star-fill" transform="translate(29.000000, 18.000000)">
                    <path d="M19.9655773,0.666666667 C20.8880697,0.666666667 21.63878,1.37045752 21.63878,2.23529412 L21.63878,2.23529412 L21.63878,25.7647059 C21.63878,26.6295425 20.8880697,27.3333333 19.9655773,27.3333333 L19.9655773,27.3333333 L2.00653595,27.3333333 C1.08404357,27.3333333 0.333333333,26.6295425 0.333333333,25.7647059 L0.333333333,25.7647059 L0.333333333,2.23529412 C0.333333333,1.37045752 1.08404357,0.666666667 2.00653595,0.666666667 L2.00653595,0.666666667 Z M14.1093682,11.124183 C11.8187538,11.124183 9.97153813,12.9595294 10.1641795,15.1448366 C10.1624621,15.1535014 10.1609245,15.1586105 10.159549,15.1644568 C10.1554779,15.1863463 10.1536009,15.2104087 10.1522022,15.2786299 L10.1514193,15.3251365 C10.151298,15.3338623 10.1511812,15.3430985 10.1510687,15.3528792 L10.1504452,15.4183738 C10.1503496,15.4304703 10.1502581,15.4431802 10.1501705,15.4565377 L10.1494847,15.5951689 C10.1494194,15.6127213 10.1493576,15.6310244 10.1492992,15.6501125 L10.1492978,20.4148068 C10.1493136,20.5119034 10.1493285,20.6108153 10.1493424,20.7115768 L10.1494553,22.3660131 C10.1494553,22.9228235 10.7528122,23.3028497 11.3026824,23.0920261 L11.3026824,23.0920261 L14.1093682,22.0162092 L16.916054,23.0919739 C17.464251,23.3020654 18.069281,22.9248105 18.069281,22.3660131 L18.069281,22.3660131 L18.069281,14.8366013 C18.069281,12.7895948 16.2928418,11.124183 14.1093682,11.124183 Z M7.41655773,21.1633987 L4.73943355,21.1633987 C4.27740654,21.1633987 3.90283224,21.5145621 3.90283224,21.9477124 C3.90283224,22.3808627 4.27740654,22.7320261 4.73943355,22.7320261 L4.73943355,22.7320261 L7.41655773,22.7320261 C7.87858475,22.7320261 8.25315904,22.3808627 8.25315904,21.9477124 C8.25315904,21.5145621 7.87858475,21.1633987 7.41655773,21.1633987 L7.41655773,21.1633987 Z M16.3960784,17.8646275 L16.3960784,21.1980131 L14.4259939,20.4428758 C14.2230344,20.3651242 13.995702,20.3651242 13.7927425,20.4428758 L13.7927425,20.4428758 L11.822658,21.1980131 L11.822658,17.8646275 C13.1934571,18.7771503 15.023885,18.7780915 16.3960784,17.8646275 L16.3960784,17.8646275 Z M7.41655773,17.8169935 L4.73943355,17.8169935 C4.27740654,17.8169935 3.90283224,18.1681569 3.90283224,18.6013072 C3.90283224,19.0344575 4.27740654,19.3856209 4.73943355,19.3856209 L4.73943355,19.3856209 L7.41655773,19.3856209 C7.87858475,19.3856209 8.25315904,19.0344575 8.25315904,18.6013072 C8.25315904,18.1681569 7.87858475,17.8169935 7.41655773,17.8169935 L7.41655773,17.8169935 Z M14.1093682,12.6928105 C15.3722834,12.6928105 16.3960784,13.6526183 16.3960784,14.8366013 C16.3960784,16.0205843 15.3722834,16.9803922 14.1093682,16.9803922 C12.846453,16.9803922 11.822658,16.0205843 11.822658,14.8366013 C11.822658,13.6526183 12.846453,12.6928105 14.1093682,12.6928105 Z M7.41655773,14.4705882 L4.73943355,14.4705882 C4.27740654,14.4705882 3.90283224,14.8217516 3.90283224,15.254902 C3.90283224,15.6880523 4.27740654,16.0392157 4.73943355,16.0392157 L4.73943355,16.0392157 L7.41655773,16.0392157 C7.87858475,16.0392157 8.25315904,15.6880523 8.25315904,15.254902 C8.25315904,14.8217516 7.87858475,14.4705882 7.41655773,14.4705882 L7.41655773,14.4705882 Z M7.61338214,11.2287582 L4.54255338,11.2287582 C4.18922876,11.2287582 3.90277647,11.5799216 3.90277647,12.0130719 C3.90277647,12.4462222 4.18922876,12.7973856 4.54255338,12.7973856 L4.54255338,12.7973856 L7.61338214,12.7973856 C7.96670675,12.7973856 8.25315904,12.4462222 8.25315904,12.0130719 C8.25315904,11.5799216 7.96670675,11.2287582 7.61338214,11.2287582 L7.61338214,11.2287582 Z M17.2326797,7.77777778 L4.73943355,7.77777778 C4.27762963,7.77777778 3.90283224,8.12915033 3.90283224,8.5620915 C3.90283224,8.99503268 4.27762963,9.34640523 4.73943355,9.34640523 L4.73943355,9.34640523 L17.2326797,9.34640523 C17.6944837,9.34640523 18.069281,8.99503268 18.069281,8.5620915 C18.069281,8.12915033 17.6944837,7.77777778 17.2326797,7.77777778 L17.2326797,7.77777778 Z M17.2326797,4.43137255 L4.73943355,4.43137255 C4.27762963,4.43137255 3.90283224,4.7827451 3.90283224,5.21568627 C3.90283224,5.64862745 4.27762963,6 4.73943355,6 L4.73943355,6 L17.2326797,6 C17.6944837,6 18.069281,5.64862745 18.069281,5.21568627 C18.069281,4.7827451 17.6944837,4.43137255 17.2326797,4.43137255 L17.2326797,4.43137255 Z" id="Combined-Shape"></path>
                </g>
            </g>
        </g>
    </g>
</svg>