<?xml version="1.0" encoding="UTF-8"?>
<svg width="20px" height="14px" viewBox="0 0 20 14" version="1.1" xmlns="http://www.w3.org/2000/svg" xmlns:xlink="http://www.w3.org/1999/xlink">
    <title>099E3870-62FD-4EBF-92E4-7BFBEB8048DC</title>
    <g id="UI-Main-Pages-(Broke-links-to-icons)" stroke="none" stroke-width="1" fill="none" fill-rule="evenodd">
        <g id="02.0.0.-Profile--Page---General---Default---Collapsed" transform="translate(-982.000000, -301.000000)" fill="#1A34B8">
            <g id="Contact-Information-Modul" transform="translate(120.000000, 184.000000)">
                <g id="Email" transform="translate(860.000000, 112.000000)">
                    <g id="27)-Icon/bookmark-fill-Copy-6" transform="translate(2.000000, 5.000000)">
                        <path d="M12.9296875,7.82487222 L18.9952734,13.8246111 C18.7660937,13.9337722 18.5127734,14 18.2421875,14 L18.2421875,14 L1.7578125,14 C1.48722656,14 1.23390625,13.9337722 1.00472656,13.8246111 L1.00472656,13.8246111 L7.0703125,7.82487222 L7.92859375,8.67937778 C9.07074219,9.81645 10.9292188,9.81645 12.0713672,8.67937778 L12.0713672,8.67937778 L12.9296875,7.82487222 Z M19.8238281,1.00026111 C19.9334766,1.22842222 20,1.48061667 20,1.75 L20,1.75 L20,12.25 C20,12.5193444 19.9334766,12.7715778 19.8238281,12.9997389 L19.8238281,12.9997389 L13.7582422,7 Z M0.176171875,1.00026111 L6.24175781,7 L0.176171875,12.9997389 C0.0665234375,12.7716167 2.7533531e-14,12.5193833 2.7533531e-14,12.25 L2.7533531e-14,12.25 L2.7533531e-14,1.75 C2.7533531e-14,1.48061667 0.0665234375,1.22842222 0.176171875,1.00026111 L0.176171875,1.00026111 Z M18.2421875,2.13162821e-14 C18.5127734,2.13162821e-14 18.7660937,0.0662277778 18.9952734,0.175388889 L18.9952734,0.175388889 L11.2428125,7.85450556 C10.5573438,8.53692778 9.44265625,8.53692778 8.7571875,7.85450556 L8.7571875,7.85450556 L1.00472656,0.175388889 C1.23390625,0.0662277778 1.48722656,2.13162821e-14 1.7578125,2.13162821e-14 L1.7578125,2.13162821e-14 Z" id="Combined-Shape"></path>
                    </g>
                </g>
            </g>
        </g>
    </g>
</svg>