<?xml version="1.0" encoding="UTF-8"?>
<svg width="20px" height="16px" viewBox="0 0 20 16" version="1.1" xmlns="http://www.w3.org/2000/svg" xmlns:xlink="http://www.w3.org/1999/xlink">
    <title>477CE937-545A-46B3-B889-C32267578444</title>
    <g id="UI-Main-Pages-(Broke-links-to-icons)" stroke="none" stroke-width="1" fill="none" fill-rule="evenodd">
        <g id="02.0.0.-Profile--Page---General---Default---Collapsed" transform="translate(-258.000000, -300.000000)" fill="#1A34B8">
            <g id="Contact-Information-Modul" transform="translate(120.000000, 184.000000)">
                <g id="Employee-iD" transform="translate(136.000000, 112.000000)">
                    <g id="27)-Icon/bookmark-fill-Copy" transform="translate(2.000000, 4.000000)">
                        <path d="M17.947234,0.145371429 L1.91489362,0.145371429 C0.85787234,0.145371429 0,1.06651429 0,2.20251429 L0,13.6493714 C0,14.7853714 0.85787234,15.7065143 1.91489362,15.7065143 L17.947234,15.7065143 C19.0046809,15.7065143 19.8621277,14.7853714 19.8621277,13.6493714 L19.8621277,2.20251429 C19.8621277,1.06651429 19.0046809,0.145371429 17.947234,0.145371429 Z M2,10.5514913 C2,10.5280283 2.00510638,10.5054507 2.00595745,10.4837585 C2.03659574,9.51336395 2.70638298,8.72137679 3.75957447,8.2910741 C3.39234043,7.8368657 3.17106383,7.25161862 3.17106383,6.61324775 C3.17106383,5.88589453 3.4587234,5.22804493 3.92085106,4.75391511 C4.02893617,4.64324055 4.14595745,4.54186265 4.27148936,4.45243761 C4.67446809,4.16645454 5.16042553,4 5.68340426,4 C6.20638298,4 6.69191489,4.16733994 7.09446809,4.45243761 C7.7587234,4.92302584 8.19531915,5.7158984 8.19531915,6.61324775 C8.19531915,7.25117592 7.97361702,7.836423 7.60680851,8.2906314 C8.61744681,8.70322616 9.27914894,9.44740191 9.35744681,10.3660008 C9.36553191,10.4270931 9.36808511,10.4895136 9.36808511,10.551934 C9.36808511,10.9423939 9.21829787,11.294339 8.97787234,11.5546456 C8.72468085,11.8277904 8.3706383,12 7.97659574,12 C7.97574468,12 7.97489362,12 7.97319149,12 L3.3906383,12 C2.64170213,12 2.03574468,11.3828786 2.00510638,10.6130264 C2.00510638,10.5917769 2,10.5727409 2,10.5514913 Z M17.8025532,11.068 C17.772766,11.588 17.407234,12 16.9574468,12 L11.8510638,12 C11.5408511,12 11.2719149,11.802 11.1221277,11.5095 C11.046383,11.36 11,11.1865 11,11 C11,10.448 11.3812766,10 11.8510638,10 L15.8876596,10 L16.9574468,10 C17.4085106,10 17.772766,10.412 17.8025532,10.9315 C17.8038298,10.955 17.8085106,10.9765 17.8085106,11 C17.8085106,11.0235 17.8038298,11.045 17.8025532,11.068 Z M17.8025532,8.0685 C17.772766,8.588 17.407234,9 16.9574468,9 L15.8876596,9 L11.8510638,9 C11.3812766,9 11,8.552 11,8 C11,7.448 11.3812766,7 11.8510638,7 L15.8876596,7 L16.9574468,7 C17.4085106,7 17.772766,7.412 17.8025532,7.932 C17.8038298,7.955 17.8085106,7.9765 17.8085106,7.9995 C17.8080851,8.0235 17.8038298,8.045 17.8025532,8.0685 Z M17.8025532,5.068 C17.772766,5.588 17.407234,6 16.9574468,6 L15.8876596,6 L11.8510638,6 C11.3812766,6 11,5.552 11,5 C11,4.813 11.046383,4.64 11.1221277,4.4905 C11.2719149,4.1975 11.54,4 11.8510638,4 L16.9574468,4 C17.4085106,4 17.772766,4.412 17.8025532,4.932 C17.8038298,4.955 17.8085106,4.9765 17.8085106,5 C17.8085106,5.0235 17.8038298,5.045 17.8025532,5.068 Z" id="Shape"></path>
                    </g>
                </g>
            </g>
        </g>
    </g>
</svg>