<?xml version="1.0" encoding="UTF-8"?>
<svg width="12px" height="8px" viewBox="0 0 12 8" version="1.1" xmlns="http://www.w3.org/2000/svg" xmlns:xlink="http://www.w3.org/1999/xlink">
    <title>FCC6A7DA-D30E-4B56-9988-F24B573E7B4B</title>
    <defs>
        <path d="M0.666666667,6.66666667 C1.03466667,6.66666667 1.33333333,6.96533333 1.33333333,7.33333333 C1.33333333,7.70133333 1.03466667,8 0.666666667,8 C0.298666667,8 0,7.70133333 0,7.33333333 C0,6.96533333 0.298666667,6.66666667 0.666666667,6.66666667 Z M11.3763333,6.66666667 C11.7196667,6.66666667 12.0003333,6.94733333 12.0003333,7.29066667 L12.0003333,7.29066667 L12.0003333,7.376 C12.0003333,7.71933333 11.7196667,8 11.3763333,8 L11.3763333,8 L3.29033333,8 C2.947,8 2.667,7.71933333 2.667,7.376 L2.667,7.376 L2.667,7.29066667 C2.667,6.94733333 2.947,6.66666667 3.29033333,6.66666667 L3.29033333,6.66666667 Z M0.666666667,3.33333333 C1.03466667,3.33333333 1.33333333,3.632 1.33333333,4 C1.33333333,4.368 1.03466667,4.66666667 0.666666667,4.66666667 C0.298666667,4.66666667 0,4.368 0,4 C0,3.632 0.298666667,3.33333333 0.666666667,3.33333333 Z M11.3763333,3.33333333 C11.7196667,3.33333333 12.0003333,3.614 12.0003333,3.95733333 L12.0003333,3.95733333 L12.0003333,4.04266667 C12.0003333,4.386 11.7196667,4.66666667 11.3763333,4.66666667 L11.3763333,4.66666667 L3.29033333,4.66666667 C2.947,4.66666667 2.667,4.386 2.667,4.04266667 L2.667,4.04266667 L2.667,3.95733333 C2.667,3.614 2.947,3.33333333 3.29033333,3.33333333 L3.29033333,3.33333333 Z M0.666666667,0 C1.03466667,0 1.33333333,0.298666667 1.33333333,0.666666667 C1.33333333,1.03466667 1.03466667,1.33333333 0.666666667,1.33333333 C0.298666667,1.33333333 0,1.03466667 0,0.666666667 C0,0.298666667 0.298666667,0 0.666666667,0 Z M11.3763333,0 C11.7196667,0 12.0003333,0.280666667 12.0003333,0.624 L12.0003333,0.624 L12.0003333,0.709333333 C12.0003333,1.05266667 11.7196667,1.33333333 11.3763333,1.33333333 L11.3763333,1.33333333 L3.29033333,1.33333333 C2.947,1.33333333 2.667,1.05266667 2.667,0.709333333 L2.667,0.709333333 L2.667,0.624 C2.667,0.280666667 2.947,0 3.29033333,0 L3.29033333,0 Z" id="path-1"></path>
    </defs>
    <g id="UI-Main-Pages-(Broke-links-to-icons)" stroke="none" stroke-width="1" fill="none" fill-rule="evenodd">
        <g id="01.1.0.-Listing-Page---Table-View-Style---Default" transform="translate(-1302.000000, -192.000000)">
            <g id="View-Style-Buttons" transform="translate(1187.000000, 184.000000)">
                <g id="List-Icon" transform="translate(109.000000, 0.000000)">
                    <g id="27)-Icon/grid-fill" transform="translate(6.000000, 8.000000)">
                        <mask id="mask-2" fill="white">
                            <use xlink:href="#path-1"></use>
                        </mask>
                        <use id="🎨-Icon-Сolor" fill="#FFFFFF" xlink:href="#path-1"></use>
                    </g>
                </g>
            </g>
        </g>
    </g>
</svg>