<?xml version="1.0" encoding="UTF-8"?>
<svg width="20px" height="20px" viewBox="0 0 20 20" version="1.1" xmlns="http://www.w3.org/2000/svg" xmlns:xlink="http://www.w3.org/1999/xlink">
    <title>182BAF18-5EEF-4424-92E5-F13EF92659B4</title>
    <g id="UI-Main-Pages-(Broke-links-to-icons)" stroke="none" stroke-width="1" fill="#3366FF" fill-rule="evenodd">
        <g id="02.0.0.-Profile--Page---General---Default---Collapsed" transform="translate(-620.000000, -298.000000)" fill="#3366FF">
            <g id="Contact-Information-Modul" transform="translate(120.000000, 184.000000)">
                <g id="School" transform="translate(498.000000, 112.000000)">
                    <g id="27)-Icon/bookmark-fill-Copy-3" transform="translate(2.000000, 2.000000)">
                        <path d="M19,19 L19,7 C19,6.4 18.6,6 18,6 L11,6 L11,4 C12.3,5 13.7,3 15,4 C15,3.5 15,1.5 15,1 C13.7,0 12.3,2 11,1 C11,0.4 10.6,0 10,0 C9.4,0 9,0.4 9,1 L9,6 L2,6 C1.4,6 1,6.4 1,7 L1,19 L0,19 L0,20 L20,20 L20,19 L19,19 Z M6,16 L3,16 L3,13 L6,13 L6,16 Z M6,11 L3,11 L3,8 L6,8 L6,11 Z M12,19 L8,19 L8,14 C8,13.4 8.4,13 9,13 L11,13 C11.6,13 12,13.4 12,14 L12,19 L12,19 Z M17,16 L14,16 L14,13 L17,13 L17,16 Z M17,11 L14,11 L14,8 L17,8 L17,11 Z" id="Shape"></path>
                    </g>
                </g>
            </g>
        </g>
    </g>
</svg>