<?xml version="1.0" encoding="UTF-8"?>
<svg width="24px" height="24px" viewBox="0 0 24 24" version="1.1" xmlns="http://www.w3.org/2000/svg" xmlns:xlink="http://www.w3.org/1999/xlink">
    <title>27) Icon/Sort by</title>
    <defs>
        <path d="M7.40002085,12.2003842 C7.84302085,11.8693842 8.46902085,11.9583842 8.80002085,12.4003842 C9.13102085,12.8423842 9.04202085,13.4693842 8.60002085,13.8003842 L8.60002085,13.8003842 L7.00002085,15.0003842 L20.0000208,15.0003842 C20.5520208,15.0003842 21.0000208,15.4473842 21.0000208,16.0003842 C21.0000208,16.5533842 20.5520208,17.0003842 20.0000208,17.0003842 L20.0000208,17.0003842 L6.91802085,17.0003842 L8.47602085,18.2103842 C8.91202085,18.5493842 8.99102085,19.1783842 8.65202085,19.6133842 C8.45502085,19.8673842 8.16002085,20.0003842 7.86202085,20.0003842 C7.64702085,20.0003842 7.43102085,19.9323842 7.24902085,19.7903842 L7.24902085,19.7903842 L3.38702085,16.7903842 C3.14002085,16.5993842 2.99802085,16.3043842 3,15.9913842 C3.00202085,15.6803842 3.15002085,15.3873842 3.40002085,15.2003842 L3.40002085,15.2003842 Z M15.3480208,3.38738418 C15.6870208,2.95038418 16.3160208,2.87138418 16.7510208,3.21038418 L16.7510208,3.21038418 L20.6130208,6.21038418 C20.8600208,6.40138418 21.0020208,6.69638418 21.0000417,7.00938418 C20.9980208,7.32038418 20.8500208,7.61338418 20.6000208,7.80038418 L20.6000208,7.80038418 L16.6000208,10.8003842 C16.4200208,10.9353842 16.2090208,11.0003842 16.0010208,11.0003842 C15.6970208,11.0003842 15.3960208,10.8623842 15.2000208,10.6003842 C14.8690208,10.1583842 14.9580208,9.53138418 15.4000208,9.20038418 L15.4000208,9.20038418 L17.0000208,8.00038418 L4.00002085,8.00038418 C3.44802085,8.00038418 3.00002085,7.55338418 3.00002085,7.00038418 C3.00002085,6.44738418 3.44802085,6.00038418 4.00002085,6.00038418 L4.00002085,6.00038418 L17.0820208,6.00038418 L15.5240208,4.79038418 C15.0880208,4.45138418 15.0090208,3.82238418 15.3480208,3.38738418 Z" id="path-1"></path>
    </defs>
    <g id="27)-Icon/Sort-by" stroke="none" stroke-width="1" fill="none" fill-rule="evenodd">
        <mask id="mask-2" fill="white">
            <use xlink:href="#path-1"></use>
        </mask>
        <use id="🎨-Icon-Сolor" fill="#3A3B3C" transform="translate(12.000021, 11.500192) rotate(90.000000) translate(-12.000021, -11.500192) " xlink:href="#path-1"></use>
    </g>
</svg>