<?xml version="1.0" encoding="UTF-8"?>
<svg width="16px" height="18px" viewBox="0 0 16 18" version="1.1" xmlns="http://www.w3.org/2000/svg" xmlns:xlink="http://www.w3.org/1999/xlink">
    <title>DC307A43-AAEB-424F-9822-2089ECF5682F</title>
    <defs>
        <path d="M9.9033,18 C9.6893,18 9.4773,17.932 9.3003,17.797 L5.2743,14.752 C5.0243,14.563 4.8773,14.268 4.8773,13.955 L4.8773,10.681 L0.1113,1.459 C-0.0487,1.149 -0.0357,0.778 0.1463,0.48 C0.3273,0.182 0.6513,0 1.0003,0 L15.0003,0 C15.3523,0 15.6783,0.185 15.8593,0.488 C16.0393,0.79 16.0473,1.166 15.8803,1.475 L10.9033,10.69 L10.9033,17 C10.9033,17.379 10.6883,17.726 10.3483,17.896 C10.2073,17.965 10.0553,18 9.9033,18" id="path-1"></path>
    </defs>
    <g id="UI-Main-Pages-(Broke-links-to-icons)" stroke="none" stroke-width="1" fill="none" fill-rule="evenodd">
        <g id="01.1.0.-Listing-Page---Table-View-Style---Default" transform="translate(-140.000000, -276.000000)">
            <g id="Filter-Bar" transform="translate(120.000000, 240.000000)">
                <g id="Filter-bar-component" transform="translate(16.000000, 24.000000)">
                    <g id="Filter-Label" transform="translate(0.000000, 8.000000)">
                        <g id="27)-Icon/funnel-fill" transform="translate(4.000000, 4.000000)">
                            <mask id="mask-2" fill="white">
                                <use xlink:href="#path-1"></use>
                            </mask>
                            <use id="🎨-Icon-Сolor" fill="#3366FF" xlink:href="#path-1"></use>
                        </g>
                    </g>
                </g>
            </g>
        </g>
    </g>
</svg>