<?xml version="1.0" encoding="UTF-8"?>
<svg width="28px" height="24px" viewBox="0 0 28 24" version="1.1" xmlns="http://www.w3.org/2000/svg" xmlns:xlink="http://www.w3.org/1999/xlink">
    <title>A29E5572-DA3C-47C6-8196-72D859CD9EEB</title>
    <defs>
        <path d="M11.3333333,3.33333333 C11.3333333,2.96533333 11.632,2.66666667 12,2.66666667 L16,2.66666667 C16.368,2.66666667 16.6666667,2.96533333 16.6666667,3.33333333 L16.6666667,5.33333333 L11.3333333,5.33333333 L11.3333333,3.33333333 Z M16,0 C17.8373333,0 19.3333333,1.496 19.3333333,3.33333333 L19.3333333,3.33333333 L19.3333333,5.33333333 L20.6666667,5.33333333 L20.6666667,24 L7.33333333,24 L7.33333333,5.33333333 L8.66666667,5.33333333 L8.66666667,3.33333333 C8.66666667,1.496 10.1626667,0 12,0 L12,0 Z M23.3333333,5.33333333 C25.5386667,5.33333333 27.3333333,7.128 27.3333333,9.33333333 L27.3333333,9.33333333 L27.3333333,20 C27.3333333,22.2053333 25.5386667,24 23.3333333,24 L23.3333333,24 Z M4.66666667,5.33333333 L4.66666667,24 C2.46133333,24 0.666666667,22.2053333 0.666666667,20 L0.666666667,20 L0.666666667,9.33333333 C0.666666667,7.128 2.46133333,5.33333333 4.66666667,5.33333333 L4.66666667,5.33333333 Z" id="path-1"></path>
    </defs>
    <g id="UI-Main-Pages-(Broke-links-to-icons)" stroke="none" stroke-width="1" fill="none" fill-rule="evenodd">
        <g id="02.0.2.-Profile--Page---General---2-tables-displayed" transform="translate(-146.000000, -836.000000)">
            <g id="Position-History" transform="translate(120.000000, 816.000000)">
                <g id="27)-Icon/star-fill" transform="translate(26.000000, 20.000000)">
                    <mask id="mask-2" fill="white">
                        <use xlink:href="#path-1"></use>
                    </mask>
                    <use id="🎨-Icon-Сolor" fill="#3366FF" xlink:href="#path-1"></use>
                </g>
            </g>
        </g>
    </g>
</svg>