<?xml version="1.0" encoding="UTF-8"?>
<svg width="12px" height="12px" viewBox="0 0 12 12" version="1.1" xmlns="http://www.w3.org/2000/svg" xmlns:xlink="http://www.w3.org/1999/xlink">
    <title>8D666DD1-D7FE-413C-B3B9-98BDD6D43926</title>
    <defs>
        <path d="M4,6.66666667 C4.73533333,6.66666667 5.33333333,7.26466667 5.33333333,8 L5.33333333,8 L5.33333333,10.6666667 C5.33333333,11.402 4.73533333,12 4,12 L4,12 L1.33333333,12 C0.598,12 0,11.402 0,10.6666667 L0,10.6666667 L0,8 C0,7.26466667 0.598,6.66666667 1.33333333,6.66666667 L1.33333333,6.66666667 Z M10.6666667,6.66666667 C11.402,6.66666667 12,7.26466667 12,8 L12,8 L12,10.6666667 C12,11.402 11.402,12 10.6666667,12 L10.6666667,12 L8,12 C7.26466667,12 6.66666667,11.402 6.66666667,10.6666667 L6.66666667,10.6666667 L6.66666667,8 C6.66666667,7.26466667 7.26466667,6.66666667 8,6.66666667 L8,6.66666667 Z M4,0 C4.73533333,0 5.33333333,0.598 5.33333333,1.33333333 L5.33333333,1.33333333 L5.33333333,4 C5.33333333,4.73533333 4.73533333,5.33333333 4,5.33333333 L4,5.33333333 L1.33333333,5.33333333 C0.598,5.33333333 0,4.73533333 0,4 L0,4 L0,1.33333333 C0,0.598 0.598,0 1.33333333,0 L1.33333333,0 Z M10.6666667,0 C11.402,0 12,0.598 12,1.33333333 L12,1.33333333 L12,4 C12,4.73533333 11.402,5.33333333 10.6666667,5.33333333 L10.6666667,5.33333333 L8,5.33333333 C7.26466667,5.33333333 6.66666667,4.73533333 6.66666667,4 L6.66666667,4 L6.66666667,1.33333333 C6.66666667,0.598 7.26466667,0 8,0 L8,0 Z" id="path-1"></path>
    </defs>
    <g id="UI-Main-Pages-(Broke-links-to-icons)" stroke="none" stroke-width="1" fill="none" fill-rule="evenodd">
        <g id="01.1.0.-Listing-Page---Table-View-Style---Default" transform="translate(-1270.000000, -190.000000)">
            <g id="View-Style-Buttons" transform="translate(1187.000000, 184.000000)">
                <g id="Cards-Icon" transform="translate(77.000000, 0.000000)">
                    <g id="27)-Icon/grid-fill" transform="translate(6.000000, 6.000000)">
                        <mask id="mask-2" fill="white">
                            <use xlink:href="#path-1"></use>
                        </mask>
                        <use id="🎨-Icon-Сolor" fill="#FFFFFF" xlink:href="#path-1"></use>
                    </g>
                </g>
            </g>
        </g>
    </g>
</svg>