<?xml version="1.0" encoding="UTF-8"?>
<svg width="28px" height="28px" viewBox="0 0 28 28" version="1.1" xmlns="http://www.w3.org/2000/svg" xmlns:xlink="http://www.w3.org/1999/xlink">
    <title>96D2AEDD-EF45-4AC8-9B05-6C1F628D6150</title>
    <g id="UI-Main-Pages-(Broke-links-to-icons)" stroke="none" stroke-width="1" fill="none" fill-rule="evenodd">
        <g id="02.0.2.-Profile--Page---General---2-tables-displayed" transform="translate(-146.000000, -1306.000000)" fill="#1A34B8">
            <g id="Professional-Dev-Table" transform="translate(120.000000, 1288.000000)">
                <g id="27)-Icon/star-fill" transform="translate(26.000000, 18.000000)">
                    <path d="M6.84427083,17.1094792 C7.27552083,17.1094792 7.62515625,17.4591146 7.62515625,17.8904167 L7.62515625,17.8904167 L7.62515625,26.5165625 C7.62515625,26.9478125 7.27552083,27.2974479 6.84427083,27.2974479 L6.84427083,27.2974479 L1.44755208,27.2974479 C1.01630208,27.2974479 0.666666667,26.9478125 0.666666667,26.5165625 L0.666666667,26.5165625 L0.666666667,17.8904167 C0.666666667,17.4591146 1.01630208,17.1094792 1.44755208,17.1094792 L1.44755208,17.1094792 Z M15.8368229,13.2045313 C16.268125,13.2045313 16.6177083,13.5541667 16.6177083,13.9854167 L16.6177083,13.9854167 L16.6177083,26.5165625 C16.6177083,26.9478125 16.2680729,27.2974479 15.8368229,27.2974479 L15.8368229,27.2974479 L10.4401042,27.2974479 C10.0088542,27.2974479 9.65921875,26.9478125 9.65921875,26.5165625 L9.65921875,26.5165625 L9.65921875,13.9854167 C9.65921875,13.5541667 10.0088542,13.2045313 10.4401042,13.2045313 L10.4401042,13.2045313 Z M22.1795833,0.702552083 C22.6108333,0.702552083 22.9604687,1.0521875 22.9604687,1.4834375 L22.9604687,1.4834375 L22.9604687,1.65953125 L26.8072396,2.9875 C27.113125,3.09307292 27.3221875,3.37635417 27.3328646,3.69973958 C27.3435937,4.023125 27.1538021,4.31963542 26.855625,4.44526042 L26.855625,4.44526042 L22.9604687,6.08640625 L22.9604687,8.78098958 L24.8779167,8.78098958 C25.3091667,8.78098958 25.6588021,9.130625 25.6588021,9.561875 L25.6588021,9.561875 L25.6588021,26.5165625 C25.6588021,26.9478125 25.3091667,27.2974479 24.8779167,27.2974479 L24.8779167,27.2974479 L19.4811979,27.2974479 C19.0499479,27.2974479 18.7003125,26.9478125 18.7003125,26.5165625 L18.7003125,26.5165625 L18.7003125,9.561875 C18.7003125,9.130625 19.0499479,8.78098958 19.4811979,8.78098958 L19.4811979,8.78098958 L21.3986979,8.78098958 L21.3986979,1.4834375 C21.3986979,1.0521875 21.7483333,0.702552083 22.1795833,0.702552083 Z" id="Combined-Shape"></path>
                </g>
            </g>
        </g>
    </g>
</svg>